<svg width="61" height="89" viewBox="0 0 61 89" fill="none" xmlns="http://www.w3.org/2000/svg">
<line x1="28" y1="60.5" x2="34" y2="60.5" stroke="#559CC4" stroke-width="3"/>
<line x1="41.4967" y1="30.9002" x2="43.4967" y2="60.9002" stroke="#559CC4" stroke-width="3"/>
<line x1="42.3787" y1="40.5909" x2="33.3787" y2="61.5909" stroke="#559CC4" stroke-width="3"/>
<path d="M27.968 61.576L12.544 28.04H13.184L11.008 49.736C10.7947 51.9973 10.7733 53.7467 10.944 54.984C11.1147 56.1787 11.5413 57.032 12.224 57.544C12.9493 58.0133 13.9307 58.312 15.168 58.44C15.296 58.8667 15.3813 59.3573 15.424 59.912C15.4667 60.4667 15.488 60.8933 15.488 61.192C14.464 61.1067 13.2907 61.0427 11.968 61C10.688 61 9.57867 61 8.64 61C8.04267 61 7.33867 61 6.528 61C5.76 61.0427 4.992 61.064 4.224 61.064C3.49867 61.1067 2.83733 61.1493 2.24 61.192C2.24 60.8933 2.26133 60.4667 2.304 59.912C2.34667 59.3573 2.432 58.8667 2.56 58.44C3.712 58.312 4.608 58.0347 5.248 57.608C5.93067 57.1387 6.464 56.264 6.848 54.984C7.232 53.704 7.53067 51.7627 7.744 49.16L9.792 26.376C9.92 24.84 9.856 23.6453 9.6 22.792C9.38667 21.896 8.93867 21.256 8.256 20.872C7.616 20.488 6.69867 20.296 5.504 20.296C5.376 19.8693 5.29067 19.4 5.248 18.888C5.20533 18.376 5.184 17.928 5.184 17.544C5.61067 17.5867 6.10133 17.6293 6.656 17.672C7.21067 17.672 7.78667 17.6933 8.384 17.736C8.98133 17.736 9.536 17.736 10.048 17.736C10.6027 17.736 11.136 17.736 11.648 17.736C12.2027 17.6933 12.736 17.672 13.248 17.672C13.8027 17.6293 14.3573 17.5867 14.912 17.544L31.68 54.6H30.272L44.864 17.544C45.376 17.5867 45.9093 17.6293 46.464 17.672C47.0187 17.672 47.5733 17.6933 48.128 17.736C48.7253 17.736 49.3013 17.736 49.856 17.736C50.4107 17.736 50.944 17.736 51.456 17.736C52.0107 17.6933 52.544 17.672 53.056 17.672C53.6107 17.6293 54.1653 17.5867 54.72 17.544C54.72 17.9707 54.6987 18.4187 54.656 18.888C54.6133 19.3573 54.528 19.8267 54.4 20.296C52.9067 20.296 51.7333 20.744 50.88 21.64C50.0693 22.4933 49.792 24.2 50.048 26.76L52.352 50.248C52.5653 52.3387 52.8427 53.96 53.184 55.112C53.5253 56.264 53.9947 57.0747 54.592 57.544C55.232 58.0133 56.0427 58.2907 57.024 58.376C57.152 58.8027 57.2373 59.272 57.28 59.784C57.3227 60.296 57.344 60.7653 57.344 61.192C56.832 61.1493 56.256 61.1067 55.616 61.064C54.976 61.064 54.2933 61.0427 53.568 61C52.8853 61 52.2027 61 51.52 61C50.88 61 50.2613 61 49.664 61C48.896 61 48.0427 61 47.104 61C46.1653 61.0427 45.2267 61.064 44.288 61.064C43.392 61.1067 42.5813 61.1493 41.856 61.192C41.856 60.808 41.8773 60.36 41.92 59.848C42.0053 59.336 42.112 58.8667 42.24 58.44C43.6053 58.312 44.5867 58.0347 45.184 57.608C45.824 57.1813 46.1867 56.456 46.272 55.432C46.4 54.408 46.3573 52.9573 46.144 51.08L43.712 27.784H44.416L30.592 61.128C30.208 61.2987 29.8027 61.4053 29.376 61.448C28.9493 61.5333 28.48 61.576 27.968 61.576Z" fill="black"/>
</svg>
