<svg width="47" height="47" viewBox="0 0 47 47" fill="none" xmlns="http://www.w3.org/2000/svg">
<path d="M19.8899 34.7059L19.8657 34.7091C19.8734 34.7657 19.852 34.8225 19.8071 34.8716C19.7622 34.9207 19.6944 34.961 19.6127 34.9829C19.4444 35.0264 19.3109 34.9441 19.2958 34.8335C19.2802 34.7007 19.3836 34.5848 19.547 34.5404C19.6272 34.5315 19.7038 34.5471 19.762 34.5786C19.8208 34.6105 19.8583 34.6571 19.8658 34.7093L19.8899 34.7059ZM19.8899 34.7059C19.9076 34.8366 19.7898 34.9608 19.619 35.0065L19.5424 34.5163C19.7133 34.4967 19.8723 34.5817 19.8899 34.7059ZM18.4646 35.1324V35.1323L18.4622 35.1325C18.3698 35.1419 18.2936 35.1215 18.2413 35.0832C18.1893 35.0452 18.1592 34.9887 18.1592 34.9215C18.1592 34.8099 18.2774 34.7107 18.4411 34.7107V34.7108L18.4438 34.7105C18.612 34.6919 18.7465 34.7912 18.7465 34.9215C18.7465 35.0332 18.6283 35.1324 18.4646 35.1324ZM17.2021 34.9252L17.2022 34.9248L17.1978 34.9239C17.1146 34.9054 17.046 34.8609 17.0033 34.8068C16.9606 34.7526 16.9449 34.6906 16.9625 34.6348C16.9804 34.5779 17.0271 34.5336 17.089 34.5087C17.1507 34.4839 17.2258 34.4792 17.297 34.5004C17.3809 34.5284 17.4486 34.5778 17.4909 34.6347C17.5334 34.6916 17.5493 34.7543 17.5341 34.8106C17.5189 34.8666 17.473 34.9104 17.4109 34.9329C17.349 34.9553 17.2729 34.9555 17.2021 34.9252ZM19.9427 36.2825L19.9598 36.2788C19.9599 36.9612 19.9642 37.8482 19.9686 38.6177C19.9699 38.8488 19.9712 39.0693 19.9724 39.2705C19.9752 39.7493 19.9774 40.1187 19.9774 40.2613C19.9774 40.4694 19.9124 40.6978 19.7577 40.8553C19.6043 41.0114 19.3591 41.1018 18.9896 41.0286C13.1294 38.849 9.02441 32.6571 9.02441 25.4184C9.02441 16.3643 15.2646 9.49536 23.4178 9.49536C31.5718 9.49536 38.1882 16.3652 38.1882 25.4184C38.1882 32.6575 34.2007 38.8491 28.3231 41.0155C27.9566 41.0887 27.7113 40.9984 27.5572 40.8422C27.4017 40.6846 27.3353 40.4562 27.3353 40.2483C27.3353 40.0713 27.3372 39.6556 27.3398 39.0988C27.3411 38.8125 27.3426 38.489 27.3441 38.1414C27.3485 37.1177 27.353 35.8856 27.353 34.7843C27.353 33.2781 26.9125 32.3005 26.3806 31.7696C28.0098 31.5654 29.6855 31.3312 30.9573 30.3708C32.2443 29.3989 33.113 27.6876 33.113 24.5295C33.113 23.6313 32.9682 22.9547 32.7046 22.3571C32.4427 21.7637 32.0641 21.2496 31.5967 20.6752C31.7562 20.2255 32.2404 18.4864 31.439 16.2339L31.435 16.2229L31.424 16.219C31.1083 16.1084 30.6939 16.167 30.254 16.3127C29.8131 16.4586 29.342 16.6936 28.9103 16.9415C28.4784 17.1895 28.0852 17.451 27.8 17.6504C27.6574 17.7501 27.5417 17.8343 27.4617 17.8936C27.4217 17.9233 27.3906 17.9467 27.3695 17.9628L27.3473 17.9797C26.1704 17.6154 24.906 17.4268 23.6534 17.4268C22.4008 17.4268 21.1365 17.6154 19.9596 17.9797L19.9373 17.9628C19.9162 17.9468 19.8851 17.9235 19.8451 17.8939C19.7651 17.8347 19.6494 17.7507 19.5068 17.6513C19.2216 17.4524 18.8284 17.1915 18.3965 16.9439C17.9648 16.6964 17.4937 16.4617 17.0528 16.3154C16.613 16.1695 16.1986 16.1101 15.8829 16.219L15.8718 16.2228L15.8679 16.2339C15.0665 18.4799 15.5506 20.2252 15.7101 20.6751C15.2426 21.2469 14.8962 21.7596 14.6666 22.3533C14.4355 22.9508 14.3234 23.6288 14.3234 24.5295C14.3234 27.6774 15.1551 29.3904 16.4052 30.3657C17.6411 31.3299 19.2813 31.5688 20.9104 31.7699C20.4975 32.2076 20.1308 32.923 19.997 33.9383C19.5757 34.1524 18.836 34.4335 18.043 34.3548C17.245 34.2756 16.3891 33.8317 15.7477 32.5771L15.7476 32.577C15.3414 31.7938 14.7687 31.3688 14.2974 31.1398C14.0618 31.0254 13.8516 30.9599 13.7001 30.923C13.6243 30.9046 13.5633 30.8932 13.521 30.8865C13.4998 30.8832 13.4834 30.881 13.4722 30.8796L13.4594 30.8781L13.456 30.8778L13.4551 30.8777L13.4548 30.8777L13.4548 30.8777L13.4526 30.902L13.4547 30.8776L13.4529 30.8776C13.2713 30.8751 13.1322 30.8891 13.0281 30.916C12.9242 30.9429 12.853 30.9833 12.8102 31.0355C12.7668 31.0885 12.7551 31.1508 12.7645 31.2153C12.7737 31.2792 12.8035 31.3458 12.8436 31.4107C12.9238 31.5407 13.0492 31.6701 13.1536 31.7664C13.2059 31.8148 13.2534 31.8551 13.2877 31.8833C13.3049 31.8974 13.3188 31.9086 13.3284 31.9162L13.3396 31.9249L13.3425 31.9271L13.3433 31.9277L13.3435 31.9279L13.3435 31.9279L13.3583 31.9085L13.3433 31.9283L13.3473 31.9303C13.5844 32.0506 13.8049 32.2585 14.0026 32.5044C14.2002 32.7501 14.3738 33.0324 14.5177 33.3C14.6615 33.5675 14.7753 33.8198 14.8531 34.0052C14.892 34.098 14.9219 34.1739 14.9421 34.2267C14.9522 34.253 14.9598 34.2736 14.965 34.2876L14.9707 34.3034L14.9722 34.3075L14.9724 34.3082C15.4096 35.7857 16.6691 36.2754 17.812 36.3968C18.3838 36.4575 18.9281 36.4263 19.3293 36.38C19.5299 36.3569 19.6949 36.3299 19.8098 36.3087C19.8672 36.2982 19.9121 36.289 19.9427 36.2825ZM14.7406 32.0317L14.7407 32.0318L14.7429 32.0294C14.7737 31.9952 14.8166 31.9861 14.8653 31.9984C14.9145 32.0108 14.9678 32.0449 15.0124 32.0943C15.0598 32.1532 15.0869 32.2175 15.0936 32.2734C15.1004 32.3297 15.0863 32.3742 15.0564 32.3997L15.0562 32.3996L15.0541 32.402C15.0233 32.4362 14.9804 32.4453 14.9317 32.433C14.8824 32.4206 14.8292 32.3865 14.7845 32.3371C14.7372 32.2782 14.71 32.2139 14.7033 32.1581C14.6965 32.1017 14.7106 32.0572 14.7406 32.0317ZM14.238 31.7185L14.2381 31.7184L14.236 31.7172C14.1801 31.6863 14.1398 31.6468 14.1182 31.6069C14.0971 31.5678 14.0942 31.5292 14.11 31.4956C14.1424 31.4458 14.2201 31.4237 14.332 31.4604C14.3868 31.4912 14.4265 31.5302 14.4478 31.5696C14.4692 31.6092 14.4719 31.6482 14.4554 31.6822L14.4551 31.6828C14.4221 31.7561 14.3239 31.7781 14.238 31.7185ZM16.0132 33.8286L16.0136 33.829L16.0166 33.8249C16.0484 33.7814 16.1019 33.7621 16.1648 33.7717C16.2279 33.7813 16.2995 33.8202 16.3612 33.8917L16.3612 33.8918L16.362 33.8926C16.4175 33.9511 16.4537 34.0269 16.4669 34.0976C16.4802 34.1693 16.4691 34.2303 16.4381 34.2647L16.438 34.2646L16.4366 34.2666C16.4046 34.3102 16.3526 34.3293 16.2907 34.3198C16.2282 34.3102 16.1565 34.2713 16.0916 34.1993L16.0917 34.1993L16.09 34.1977C16.026 34.139 15.986 34.0637 15.973 33.9939C15.96 33.9236 15.9747 33.8633 16.0132 33.8286ZM15.3394 32.8697L15.3395 32.8699L15.3418 32.8678C15.3805 32.8329 15.4319 32.8276 15.4856 32.8494C15.5399 32.8714 15.5948 32.9209 15.6339 32.9921L15.6338 32.9922L15.6346 32.9934C15.7258 33.1389 15.7204 33.2937 15.6392 33.3672C15.6112 33.391 15.5638 33.3941 15.5069 33.369C15.4507 33.3442 15.391 33.2938 15.3462 33.2223C15.3011 33.1505 15.2792 33.0748 15.2792 33.0106C15.2792 32.9461 15.301 32.8964 15.3394 32.8697Z" fill="#559CC4" stroke="#559CC4" stroke-width="0.0488281"/>
<circle cx="23.5" cy="23.5" r="23" stroke="#559CC4"/>
</svg>
