<svg width="47" height="47" viewBox="0 0 47 47" fill="none" xmlns="http://www.w3.org/2000/svg">
<path d="M22.3527 30.416L22.3962 30.4703L29.694 39.5784C31.1619 41.3577 34.3611 41.5892 36.3765 39.5768C38.1258 37.7676 38.1442 35.1602 36.8565 33.5368L36.8564 33.5367L30.945 25.976L30.934 25.9619L30.9442 25.9471L35.8204 18.8738L35.8204 18.8737C36.9468 17.2562 36.9537 14.7406 35.1464 12.991C34.1648 12.0405 32.8303 11.523 31.489 11.6065C30.1484 11.69 28.7993 12.3741 27.7878 13.8304L22.3527 30.416ZM22.3527 30.416V30.4855V35.5238C22.3527 37.4226 21.8235 38.7892 20.9744 39.6808C20.1254 40.5724 18.9539 40.9921 17.6637 40.9921C16.0557 40.9921 14.8438 40.4004 14.0335 39.4227C13.2226 38.4445 12.8119 37.0774 12.8119 35.5238V16.8855C12.8119 15.4015 13.237 14.0673 14.0472 13.1044C14.8569 12.1421 16.0527 11.549 17.5986 11.549C18.9246 11.549 20.1125 11.9785 20.9688 12.8669C21.8252 13.7553 22.3527 15.1054 22.3527 16.9514V21.6011V21.6792L22.3972 21.615L27.7877 13.8304L22.3527 30.416Z" fill="#559CC4" stroke="#559CC4" stroke-width="0.0488281"/>
<circle cx="23.5" cy="23.5" r="23" stroke="#559CC4"/>
</svg>
