<svg width="47" height="47" viewBox="0 0 47 47" fill="none" xmlns="http://www.w3.org/2000/svg">
<path d="M23.6655 32.3742C24.7539 32.3814 25.8479 31.8896 26.8216 31.2878C27.4995 30.8687 28.1217 30.3946 28.6439 29.9967C28.8714 29.8232 29.08 29.6643 29.2659 29.5307C32.2842 27.3716 34.2561 25.9518 35.6418 24.9434C35.748 24.8661 35.8196 24.7511 35.8415 24.6227C35.8633 24.4942 35.8337 24.3624 35.7588 24.2552L35.2096 23.4677C35.0466 23.234 34.72 23.1797 34.4887 23.3481C33.1056 24.355 31.1308 25.7772 28.0962 27.9478L28.0961 27.9478C27.924 28.0716 27.7239 28.224 27.5035 28.3921C27.0691 28.7232 26.5554 29.1148 26.0194 29.4658C25.6159 29.73 25.2009 29.9702 24.7998 30.1431C24.3983 30.316 24.0122 30.4208 23.6658 30.4156L23.6651 30.4156C23.3186 30.4207 22.9325 30.316 22.5312 30.1431C22.1301 29.9703 21.7154 29.7302 21.312 29.4661C20.7763 29.1154 20.2629 28.724 19.8283 28.3927C19.6077 28.2245 19.4073 28.0718 19.2348 27.9478L19.2347 27.9478C16.2005 25.7774 14.2255 24.3551 12.8422 23.3481C12.6109 23.1797 12.2844 23.234 12.1213 23.4677L11.572 24.2552C11.4972 24.3624 11.4675 24.4942 11.4894 24.6227C11.5112 24.7511 11.5829 24.8661 11.689 24.9434C13.0748 25.9519 15.0467 27.3717 18.0649 29.5307C18.2507 29.6641 18.4592 29.823 18.6867 29.9965C19.2085 30.3941 19.8305 30.8682 20.5083 31.2872C21.4821 31.8892 22.5766 32.3814 23.6655 32.3742ZM23.6655 32.3742C23.6654 32.3742 23.6654 32.3742 23.6653 32.3742L23.6655 32.3498L23.6656 32.3742C23.6656 32.3742 23.6655 32.3742 23.6655 32.3742ZM19.2347 10.0172L19.2348 10.0172C19.407 9.89345 19.607 9.74095 19.8274 9.5729C20.2618 9.24172 20.7755 8.85011 21.3116 8.49911C21.7151 8.23489 22.13 7.99461 22.5312 7.82174C22.9326 7.64877 23.3187 7.54399 23.6651 7.54915L23.6658 7.54914C24.0121 7.54393 24.3982 7.6487 24.7997 7.82168C25.2009 7.99456 25.6159 8.23488 26.0194 8.49913C26.5556 8.8502 27.0694 9.24188 27.5038 9.57305C27.7241 9.74105 27.9241 9.89347 28.0961 10.0171L28.0962 10.0171C35.2823 15.1575 36.5302 16.1036 38.0373 17.268C38.3812 17.5337 38.6593 17.873 38.8505 18.2602C39.0417 18.6474 39.141 19.0724 39.1411 19.503V35.2143C39.1411 36.7825 37.8512 38.0544 36.2592 38.0544H11.0717C9.47977 38.0544 8.18988 36.7825 8.18988 35.2143V19.503C8.18989 19.0724 8.28925 18.6474 8.48046 18.2602C8.67168 17.873 8.94975 17.5337 9.29367 17.268C10.8017 16.1029 12.0479 15.1581 19.2347 10.0172Z" fill="#559CC4" stroke="#559CC4" stroke-width="0.0488281"/>
<circle cx="23.5" cy="23.5" r="23" stroke="#559CC4"/>
</svg>
