<svg width="47" height="47" viewBox="0 0 47 47" fill="none" xmlns="http://www.w3.org/2000/svg">
<path d="M36.9793 13.3977L36.9793 13.3977C37.1931 12.2187 37.0118 11.4054 36.6207 10.9593C36.2313 10.515 35.6276 10.428 34.9775 10.7151C34.9774 10.7151 34.9774 10.7152 34.9773 10.7152L6.58944 23.5962C5.62336 24.0412 5.15775 24.5784 5.1213 25.0682C5.08504 25.5552 5.47308 26.0133 6.25905 26.3023L6.25907 26.3023L13.5045 28.9733L30.352 16.479C30.3521 16.4789 30.3522 16.4789 30.3522 16.4788C30.5526 16.3215 30.7492 16.2247 30.9226 16.1783C31.0957 16.132 31.2476 16.1353 31.357 16.1812C31.4678 16.2278 31.5343 16.3183 31.5306 16.4398C31.527 16.5586 31.4563 16.7024 31.3063 16.8599L31.3064 16.8599L31.2886 16.8432L31.3062 16.86L36.9793 13.3977ZM36.9793 13.3977L32.1504 40.2198M36.9793 13.3977L32.1504 40.2198M32.1504 40.2198C32.1504 40.2198 32.1504 40.2199 32.1504 40.2199L32.1504 40.2198ZM17.6755 31.3668L17.676 31.358L17.6516 31.3565L17.6694 31.3732L17.6755 31.3668ZM17.1475 40.1822C17.1394 40.1823 17.1312 40.1823 17.123 40.1823L17.1245 40.1579C17.1327 40.1579 17.1408 40.1579 17.1489 40.1578L17.1475 40.1822ZM29.5246 41.6773C29.5242 41.677 29.5237 41.6767 29.5233 41.6764L29.5098 41.6968L29.5258 41.6783L29.5246 41.6773Z" fill="#060E11" stroke="#060E11" stroke-width="0.0488281"/>
<circle cx="23.5" cy="23.5" r="23" stroke="#060E11"/>
</svg>
